<?xml version="1.0" standalone="no"?>
<!DOCTYPE svg PUBLIC "-//W3C//DTD SVG 20010904//EN"
 "http://www.w3.org/TR/2001/REC-SVG-20010904/DTD/svg10.dtd">
<svg version="1.0" xmlns="http://www.w3.org/2000/svg"
 width="700.000000pt" height="700.000000pt" viewBox="0 0 700.000000 700.000000"
 preserveAspectRatio="xMidYMid meet">
<metadata>
Created by potrace 1.11, written by Peter Selinger 2001-2013
</metadata>
<g transform="translate(0.000000,700.000000) scale(0.100000,-0.100000)"
fill="#000000" stroke="none">
<path d="M1003 6099 c-138 -28 -158 -204 -29 -259 38 -16 198 -17 2566 -16
2448 1 2526 2 2556 20 34 21 63 62 70 102 10 57 -38 131 -96 150 -28 9 -5023
12 -5067 3z"/>
<path d="M5258 5115 c-2 -2 -50 -6 -108 -9 -113 -7 -176 -28 -203 -69 -23 -36
-34 -81 -83 -332 -25 -132 -47 -247 -49 -255 -2 -8 -11 -51 -20 -95 -37 -182
-118 -494 -141 -546 -24 -53 -48 -76 -84 -80 -44 -4 -71 4 -94 29 -14 15 -103
182 -197 372 -265 536 -362 713 -434 786 -95 97 -203 142 -339 142 -94 0 -162
-15 -240 -54 -71 -35 -157 -118 -191 -183 -72 -143 -265 -680 -361 -1006 -32
-107 -64 -145 -123 -145 -65 0 -76 23 -137 262 -30 117 -56 225 -59 239 -2 14
-29 126 -59 250 -30 123 -71 296 -91 384 -44 190 -62 227 -124 257 -40 19 -60
21 -195 21 -147 -1 -376 -10 -446 -18 -19 -2 -62 -7 -95 -10 -33 -4 -71 -8
-85 -10 -14 -2 -50 -7 -80 -10 -53 -6 -238 -41 -272 -51 -29 -9 -87 -74 -96
-107 -5 -18 -7 -45 -5 -62 6 -39 41 -191 53 -230 5 -17 14 -53 20 -80 5 -28
30 -135 55 -240 26 -104 48 -199 51 -210 4 -21 89 -379 131 -555 14 -58 26
-112 28 -120 2 -8 24 -102 49 -207 75 -315 139 -588 161 -688 12 -55 47 -212
50 -225 2 -8 15 -67 29 -130 32 -140 42 -166 75 -196 41 -38 71 -45 281 -60
47 -3 101 -8 120 -10 71 -9 688 -11 770 -3 47 5 110 11 140 14 79 8 120 39
158 119 18 37 32 71 32 75 0 4 6 21 14 37 8 16 76 180 151 364 211 518 212
520 291 520 29 0 43 -7 68 -33 53 -56 175 -301 283 -567 90 -223 95 -234 108
-265 8 -16 21 -50 31 -75 23 -60 58 -106 97 -128 29 -15 66 -17 342 -17 268 0
501 8 562 19 10 2 47 7 83 11 189 20 261 35 307 61 24 14 50 38 59 55 23 45
194 684 289 1079 2 8 36 144 74 302 93 377 219 933 237 1047 3 18 8 43 10 55
8 32 37 187 49 256 1 8 8 45 15 82 16 86 7 129 -33 172 -38 40 -77 52 -202 61
-90 7 -621 15 -627 10z"/>
<path d="M1054 1160 c-134 -18 -178 -176 -70 -253 l31 -22 2510 0 2510 0 31
22 c36 26 64 78 64 118 0 44 -38 101 -81 120 -35 16 -197 18 -2496 19 -1352 0
-2477 -1 -2499 -4z"/>
</g>
</svg>
