<svg viewBox="0 0 256 256" xmlns="http://www.w3.org/2000/svg"><title>icon_calendar_view</title><path d="M48 53c0-2.8 2.2-5 5-5h38c2.8 0 5 2.2 5 5v38c0 2.8-2.2 5-5 5H53c-2.8 0-5-2.2-5-5V53zm0 56c0-2.8 2.2-5 5-5h38c2.8 0 5 2.2 5 5v38c0 2.8-2.2 5-5 5H53c-2.8 0-5-2.2-5-5v-38zm0 56c0-2.8 2.2-5 5-5h38c2.8 0 5 2.2 5 5v38c0 2.8-2.2 5-5 5H53c-2.8 0-5-2.2-5-5v-38zm56-112c0-2.8 2.2-5 5-5h38c2.8 0 5 2.2 5 5v38c0 2.8-2.2 5-5 5h-38c-2.8 0-5-2.2-5-5V53zm0 56c0-2.8 2.2-5 5-5h38c2.8 0 5 2.2 5 5v38c0 2.8-2.2 5-5 5h-38c-2.8 0-5-2.2-5-5v-38zm0 56c0-2.8 2.2-5 5-5h38c2.8 0 5 2.2 5 5v38c0 2.8-2.2 5-5 5h-38c-2.8 0-5-2.2-5-5v-38zm56-112c0-2.8 2.2-5 5-5h38c2.8 0 5 2.2 5 5v38c0 2.8-2.2 5-5 5h-38c-2.8 0-5-2.2-5-5V53zm0 56c0-2.8 2.2-5 5-5h38c2.8 0 5 2.2 5 5v38c0 2.8-2.2 5-5 5h-38c-2.8 0-5-2.2-5-5v-38zm0 56c0-2.8 2.2-5 5-5h38c2.8 0 5 2.2 5 5v38c0 2.8-2.2 5-5 5h-38c-2.8 0-5-2.2-5-5v-38z" fill="#17242E" fill-rule="evenodd"/></svg>