<svg width="256" height="256" xmlns="http://www.w3.org/2000/svg"><path d="M220 81.6c7 13.8 10.8 29.4 10.8 46C230.8 184 185 230 128.4 230 72 230 26 184 26 127.5 26 71 72 25 128.4 25c16.5 0 32 4 46 10.8-3.3 5-5.2 11.2-5.2 17.7 0 18.3 15 33.2 33.2 33.2 6.5 0 12.5-2 17.6-5zM81.4 158h37v-8h-14V93.8h-8l-15.5 15 5.4 5.6 6-6c2.4-2.2 3-3.7 3-3.7h.3V150H81.3v8zm55.2-8s6.4 9 19.6 9c13 0 22.8-9.2 22.8-21.6 0-11.6-8.8-21-22.4-21-4.7 0-8.3 2-8.3 2h-.2s.5-1.4.6-3.3l1.5-13.5h24.7v-7.8h-32.4l-3.2 32 5.3 1.8s4.6-3.2 10.8-3.2c8.4 0 14.8 5.4 14.8 13.2 0 7.8-6.6 13-14 13-9.2 0-14.2-7-14.2-7l-5 6.6zm65.8-68c15.7 0 28.4-12.8 28.4-28.5 0-15.8-12.7-28.5-28.4-28.5S174 37.7 174 53.5c0 15.7 12.7 28.4 28.4 28.4z" fill="#F7F9F9" fill-rule="evenodd"/></svg>