<svg width="256" height="256" xmlns="http://www.w3.org/2000/svg"><path d="M210.6 25h-165c-11.2 0-20.5 9.3-20.5 20.7v185.6L66.4 190h144.3c11.4 0 20.7-9.2 20.7-20.5V45.7c0-11.4-9.3-20.7-20.7-20.7zM87 118c5.6 0 10.2-4.7 10.2-10.4S92.6 97.2 87 97.2c-5.8 0-10.4 4.7-10.4 10.4S81.2 118 87 118zm82.4 0c5.7 0 10.3-4.7 10.3-10.4s-4.6-10.4-10.3-10.4c-5.7 0-10.3 4.7-10.3 10.4s4.7 10.3 10.4 10.3zm-41.2 0c5.7 0 10.3-4.7 10.3-10.4s-4.6-10.4-10.3-10.4c-5.7 0-10.3 4.7-10.3 10.4S122.4 118 128 118z" fill="#F7F9F9" fill-rule="evenodd"/></svg>