<svg width="256" height="256" xmlns="http://www.w3.org/2000/svg"><path d="M25 87c.4-4 1-8.3 1.2-12.5.2-5 2.6-8.8 7.6-9.8 8-1.8 16.4-3.5 24.7-4.2 7.3-.6 12.7 3.8 16 10 10.2 18.4 20 37 30 55.6l6.3 10.5c1.4-6.3 2.7-10.8 3.5-15.4 5-28.5 13.7-56 25-82.8 2.5-6.2 6.8-9 13.2-9.2 5.4 0 10.8.3 16 .5 13 .3 20.2 7.5 23.3 19.2 3.7 14 7.5 28 10.8 42 9.6 41 18.8 82 28.5 123 1.3 5.2 0 6.8-5 7.6-6.6 1.2-13 3.3-19.4 5-7.3 1.8-9.8.6-12-6.5-7.8-24.4-15.4-48.7-23-73-3.7-11.8-7.5-23.5-12.6-35-.7 7.8-1.5 15.6-2 23.4-1 18.5-1.8 37-3 55.4-1 15-5 19.2-20.2 21.3-2 .2-4 .3-5.8.7-16.5 3.5-21.6.7-32-15.5l-10.2-17c-4-6.2-8-12.5-13.4-18.6l.6 7 3.5 27.2c1 6.4-1 11.4-7.5 13.8-6.3 2.2-12.5 4.8-19 6-10 2-15.5-1.2-17.3-11.2-3-15.2-4.5-30.7-6.6-46l-1-7.5V87" fill="#F7F9F9" fill-rule="evenodd"/></svg>