<svg width="256" height="256" xmlns="http://www.w3.org/2000/svg"><path d="M122.2 48.6c9.3 5.4 8.6 38-13.8 77C86 164.2 58 181.2 48.7 175.8c-9.3-5.5-8.6-38 14-77C85 60 112.8 43.2 122 48.6zm30 143.7l1.6 9.7c.3 1.7 0 3.3-1.2 4.7-1 1.3-2.6 2-4.3 2l-41.8 2c-3.2 0-6-2.4-6-5.6l-1-12.7H152zm-105-102c-25.8 45-29 88.3-7.3 101 7 4 15.3 4 24.5 1h20.7l1 14c.7 6.8 4.5 12.5 10 15.7 3.2 1.8 7 2.8 11 2.6l41.6-1.7c5.8-.3 11-3 14.7-7.5 3.6-4.4 5.2-10.2 4.2-16l-1.2-7.2H184l3.6 6.3c.8 4.6 3 8.3 6.6 10.4 8.8 5 22.2-2 30.4-16.4 8.3-14.3 7.8-29.4-1-34.5-3.6-2-8-2-12.3-.4H204L144.4 54c-2-9.4-6.3-16.6-13.3-20.7-21.8-12.5-57.7 12-83.7 57z" fill="#F7F9F9" fill-rule="evenodd"/></svg>