<svg id="Layer_1" xmlns="http://www.w3.org/2000/svg" width="256" height="256" viewBox="-177 269 256 256"><style>.st0{fill:#FFFFFF;}</style><path class="st0" d="M36 354c-2 74.6-49 126.6-120.3 129.8-29.2 1.6-50.3-8-69.8-19.5 21 3.3 48.6-4.8 63.2-17.8-21-1.6-34-13-40.6-30.8 6.5 1.6 13 0 18 0-19.6-6.5-32.6-18-34.2-44 5 3.4 11.4 5 17.8 5-14.6-8-24.3-39-13-58.4 21.2 22.7 47 42.2 89.3 45.4-11.3-45.4 50.3-69.8 74.7-39 11.3-1.5 19.4-6.4 27.6-9.7-3.4 11.4-10 18-18 24.4 8-1.6 16.2-3.3 22.7-6.5-1.6 8-9.7 14.4-17.8 21h.3z"/></svg>