<svg width="256" height="256" xmlns="http://www.w3.org/2000/svg" xmlns:xlink="http://www.w3.org/1999/xlink"><defs><path id="a" d="M205 127.6V.6H0v127h205z"/></defs><g fill="none" fill-rule="evenodd"><g transform="translate(25 63.865)"><mask id="b" fill="#fff"><use xlink:href="#a"/></mask><path d="M174.2 123c-16.3 3-36.3 3-45.4 2.5-2.6-.2-4.8-1.7-5.8-4-5-12-9.4-24.6-16.2-36-1.4-2.5-5.4-3.7-7.4.4-1.7 3.3-11 27-15.3 37-.7 2-2.5 3.2-4.7 3.5-13 1.8-32.8 1-48.2-.4-2.7 0-5-2.2-5.5-4.7C17.3 84 9 51 0 13-.5 10 1.5 6.8 4.8 6c10.6-2.6 28-4 42-3.7 3 .2 5.5 2 6 4.7 3.5 13.6 11 45.7 11.7 47.8C66 59 71 57 71.8 54c3.7-13 8.5-27.8 14.4-41 2.5-5.7 8.5-9.4 15-10h.3c7.3-.7 14.2 3 17.7 9 8.5 14.8 15.8 31 20.7 40.4 1 2.4 5.3 3.6 7.2.7 2.8-4 8.5-33.8 10.8-46.5.5-2.7 2.8-4.8 5.7-5 11.5-1.2 23.3-1 35.4 0 3.8.2 6.5 3.3 6 6.7-5 32-20.4 91-25.8 110.3-.6 2.3-2.5 4-5 4.4" fill="#F7F9F9" mask="url(#b)"/></g><path d="M218 36.7H37c-3 0-5.3-3-5.3-6C31.7 28 34 25 37 25h181c3 0 5.3 3 5.3 5.8 0 3-2.4 6-5.3 6M218 231H37c-3 0-5.3-3-5.3-5.8 0-3 2.4-6 5.4-6h181c3 0 5.3 3 5.3 6S221 231 218 231" fill="#F7F9F9"/></g></svg>