<?xml version="1.0" encoding="utf-8"?><svg width="640" height="64" viewBox="0 0 640 64" xmlns="http://www.w3.org/2000/svg" xmlns:xlink="http://www.w3.org/1999/xlink"><svg width="64" height="64" viewBox="-4.13 -4.13 264.26 264.26" id="burger"><g transform="translate(25 72)" fill="#F7F9F9" fill-rule="evenodd"><rect width="200" height="20.4" rx="10.2"/><rect y="45.8" width="200" height="20.4" rx="10.2"/><rect y="91.6" width="200" height="20.4" rx="10.2"/></g></svg><svg width="64" height="64" viewBox="-4.13 -4.13 264.26 264.26" id="close" x="64"><path d="M114.3 128l-55 55c-3.7 3.7-3.7 9.8 0 13.6 4 3.8 10 3.8 13.7 0l55-55 55 55c3.7 3.8 9.8 3.8 13.6 0 3.8-3.8 3.8-10 0-13.6l-55-55 55-55c3.8-3.7 3.8-9.8 0-13.6-3.8-3.8-10-3.8-13.6 0l-55 55-55-55c-3.7-3.8-9.8-3.8-13.6 0-3.8 3.8-3.8 10 0 13.6l55 55z" fill="#F7F9F9" fill-rule="evenodd"/></svg><svg width="64" height="64" viewBox="-4.13 -4.13 264.26 264.26" id="events" x="128"><path d="M220 81.6c7 13.8 10.8 29.4 10.8 46C230.8 184 185 230 128.4 230 72 230 26 184 26 127.5S72 25 128.4 25c16.5 0 32 4 46 10.8-3.3 5-5.2 11.2-5.2 17.7 0 18.3 15 33.2 33.2 33.2 6.5 0 12.5-2 17.6-5zM81.4 158h37v-8h-14V93.8h-8l-15.5 15 5.4 5.6 6-6c2.4-2.2 3-3.7 3-3.7h.3V150H81.3v8zm55.2-8s6.4 9 19.6 9c13 0 22.8-9.2 22.8-21.6 0-11.6-8.8-21-22.4-21-4.7 0-8.3 2-8.3 2h-.2s.5-1.4.6-3.3l1.5-13.5h24.7v-7.8h-32.4l-3.2 32 5.3 1.8s4.6-3.2 10.8-3.2c8.4 0 14.8 5.4 14.8 13.2 0 7.8-6.6 13-14 13-9.2 0-14.2-7-14.2-7l-5 6.6zm65.8-68c15.7 0 28.4-12.8 28.4-28.5 0-15.8-12.7-28.5-28.4-28.5S174 37.7 174 53.5c0 15.7 12.7 28.4 28.4 28.4z" fill="#F7F9F9" fill-rule="evenodd"/></svg><svg id="facebook" width="64" height="64" viewBox="-181.13 264.87 264.26 264.26" x="192"><style>.dst0{fill:#fff}</style><path class="dst0" d="M2 294v38.6h-25.8c-7.7 0-12.8 5.2-12.8 13v25.7H2V410h-38.6v90h-38.7v-90H-101v-39h25.8v-32c0-24.6 20.5-45.2 45-45.2H2v.2z"/></svg><svg width="64" height="64" viewBox="-4.13 -4.13 264.26 264.26" id="kontakt" x="256"><path d="M210.6 25h-165c-11.2 0-20.5 9.3-20.5 20.7v185.6L66.4 190h144.3c11.4 0 20.7-9.2 20.7-20.5V45.7c0-11.4-9.3-20.7-20.7-20.7zM87 118c5.6 0 10.2-4.7 10.2-10.4S92.6 97.2 87 97.2c-5.8 0-10.4 4.7-10.4 10.4S81.2 118 87 118zm82.4 0c5.7 0 10.3-4.7 10.3-10.4s-4.6-10.4-10.3-10.4c-5.7 0-10.3 4.7-10.3 10.4s4.7 10.3 10.4 10.3zm-41.2 0c5.7 0 10.3-4.7 10.3-10.4s-4.6-10.4-10.3-10.4c-5.7 0-10.3 4.7-10.3 10.4S122.4 118 128 118z" fill="#F7F9F9" fill-rule="evenodd"/></svg><svg id="mail" width="64" height="64" viewBox="-181.13 264.87 264.26 264.26" x="320"><style>.fst0{fill:#fff}</style><path class="fst0" d="M33.5 315h-164c-11.3 0-20.5 9.2-20.5 20.5v123c0 11.3 9.2 20.5 20.5 20.5h164c11.3 0 20.5-9.2 20.5-20.5v-123c0-11.3-9.2-20.5-20.5-20.5zm0 41l-82 51.3-82-51.3v-20.5l82 51.3 82-51.3V356z"/></svg><svg width="64" height="64" viewBox="-4.13 -4.13 264.26 264.26" id="meetup" x="384"><path d="M25 87c.4-4 1-8.3 1.2-12.5.2-5 2.6-8.8 7.6-9.8 8-1.8 16.4-3.5 24.7-4.2 7.3-.6 12.7 3.8 16 10 10.2 18.4 20 37 30 55.6l6.3 10.5c1.4-6.3 2.7-10.8 3.5-15.4 5-28.5 13.7-56 25-82.8 2.5-6.2 6.8-9 13.2-9.2 5.4 0 10.8.3 16 .5 13 .3 20.2 7.5 23.3 19.2 3.7 14 7.5 28 10.8 42 9.6 41 18.8 82 28.5 123 1.3 5.2 0 6.8-5 7.6-6.6 1.2-13 3.3-19.4 5-7.3 1.8-9.8.6-12-6.5-7.8-24.4-15.4-48.7-23-73-3.7-11.8-7.5-23.5-12.6-35-.7 7.8-1.5 15.6-2 23.4-1 18.5-1.8 37-3 55.4-1 15-5 19.2-20.2 21.3-2 .2-4 .3-5.8.7-16.5 3.5-21.6.7-32-15.5l-10.2-17c-4-6.2-8-12.5-13.4-18.6l.6 7 3.5 27.2c1 6.4-1 11.4-7.5 13.8-6.3 2.2-12.5 4.8-19 6-10 2-15.5-1.2-17.3-11.2-3-15.2-4.5-30.7-6.6-46l-1-7.5V87" fill="#F7F9F9" fill-rule="evenodd"/></svg><svg width="64" height="64" viewBox="-4.13 -4.13 264.26 264.26" id="news" x="448"><path d="M122.2 48.6c9.3 5.4 8.6 38-13.8 77C86 164.2 58 181.2 48.7 175.8c-9.3-5.5-8.6-38 14-77C85 60 112.8 43.2 122 48.6zm30 143.7l1.6 9.7c.3 1.7 0 3.3-1.2 4.7-1 1.3-2.6 2-4.3 2l-41.8 2c-3.2 0-6-2.4-6-5.6l-1-12.7H152zm-105-102c-25.8 45-29 88.3-7.3 101 7 4 15.3 4 24.5 1h20.7l1 14c.7 6.8 4.5 12.5 10 15.7 3.2 1.8 7 2.8 11 2.6l41.6-1.7c5.8-.3 11-3 14.7-7.5 3.6-4.4 5.2-10.2 4.2-16l-1.2-7.2H184l3.6 6.3c.8 4.6 3 8.3 6.6 10.4 8.8 5 22.2-2 30.4-16.4 8.3-14.3 7.8-29.4-1-34.5-3.6-2-8-2-12.3-.4H204L144.4 54c-2-9.4-6.3-16.6-13.3-20.7-21.8-12.5-57.7 12-83.7 57z" fill="#F7F9F9" fill-rule="evenodd"/></svg><svg id="twitter" width="64" height="64" viewBox="-181.13 264.87 264.26 264.26" x="512"><style>.ist0{fill:#fff}</style><path class="ist0" d="M36 354c-2 74.6-49 126.6-120.3 129.8-29.2 1.6-50.3-8-69.8-19.5 21 3.3 48.6-4.8 63.2-17.8-21-1.6-34-13-40.6-30.8 6.5 1.6 13 0 18 0-19.6-6.5-32.6-18-34.2-44 5 3.4 11.4 5 17.8 5-14.6-8-24.3-39-13-58.4 21.2 22.7 47 42.2 89.3 45.4-11.3-45.4 50.3-69.8 74.7-39 11.3-1.5 19.4-6.4 27.6-9.7-3.4 11.4-10 18-18 24.4 8-1.6 16.2-3.3 22.7-6.5-1.6 8-9.7 14.4-17.8 21h.3z"/></svg><svg width="64" height="64" viewBox="-4.13 -4.13 264.26 264.26" id="webclerks" x="576"><defs><path id="ja" d="M205 127.6V.6H0v127h205z"/></defs><g fill="none" fill-rule="evenodd"><g transform="translate(25 63.865)"><mask id="jb" fill="#fff"><use xlink:href="#ja"/></mask><path d="M174.2 123c-16.3 3-36.3 3-45.4 2.5-2.6-.2-4.8-1.7-5.8-4-5-12-9.4-24.6-16.2-36-1.4-2.5-5.4-3.7-7.4.4-1.7 3.3-11 27-15.3 37-.7 2-2.5 3.2-4.7 3.5-13 1.8-32.8 1-48.2-.4-2.7 0-5-2.2-5.5-4.7C17.3 84 9 51 0 13c-.5-3 1.5-6.2 4.8-7 10.6-2.6 28-4 42-3.7 3 .2 5.5 2 6 4.7 3.5 13.6 11 45.7 11.7 47.8C66 59 71 57 71.8 54c3.7-13 8.5-27.8 14.4-41 2.5-5.7 8.5-9.4 15-10h.3c7.3-.7 14.2 3 17.7 9 8.5 14.8 15.8 31 20.7 40.4 1 2.4 5.3 3.6 7.2.7 2.8-4 8.5-33.8 10.8-46.5.5-2.7 2.8-4.8 5.7-5 11.5-1.2 23.3-1 35.4 0 3.8.2 6.5 3.3 6 6.7-5 32-20.4 91-25.8 110.3-.6 2.3-2.5 4-5 4.4" fill="#F7F9F9" mask="url(#jb)"/></g><path d="M218 36.7H37c-3 0-5.3-3-5.3-6C31.7 28 34 25 37 25h181c3 0 5.3 3 5.3 5.8 0 3-2.4 6-5.3 6m0 194.2H37c-3 0-5.3-3-5.3-5.8 0-3 2.4-6 5.4-6h181c3 0 5.3 3 5.3 6S221 231 218 231" fill="#F7F9F9"/></g></svg></svg>