<svg xmlns="http://www.w3.org/2000/svg" width="133.6" height="131.3" viewBox="-29.1 310.7 133.6 131.3"><path d="M83.6 414.6c-10.6 2-23.6 2-29.5 1.6-1.6-.2-3-1-3.6-2.6-3.3-7.7-6-15.8-10.6-23.2-.8-1.4-3.4-2-4.8.4-1 2-7 17.6-10 24-.3 1.3-1.3 2-3 2.4-8.5 1-21.2.7-31-.4-2 0-3.3-1.4-3.6-3.2-5.3-24.3-11-45.8-16.5-70-.5-2.2 1-4.3 3-4.7 7-2 18.4-2.6 27.6-2.4 2 0 3.5 1.2 4 3l7.3 31c1 3 4 1.5 4.8-.4 2.5-8.3 5.5-18 9.4-26.6 1.4-4 5.3-6.3 9.5-6.7h.2c4.6-.6 9 1.7 11.3 5.6 5.6 9.5 10.2 20 13.4 26.2.8 1.5 3.5 2.3 4.8.4 1.8-2.6 5.5-22 7-30 .3-2 1.8-3.2 3.7-3.4 7.4-.7 15-.4 23 0 2.4.4 4 2.5 3.8 4.6-3.2 20.8-13.2 59-16.7 71.5-.5 1.3-1.7 2.4-3.2 2.7h-.4zm17.2-97H-24.6c-2 0-3.7-1.5-3.7-3.4s1.7-3.5 3.7-3.5h125.4c2 0 3.7 1.6 3.7 3.5s-1.6 3.5-3.7 3.5zM100 442H-23.8c-2 0-3.6-1.6-3.6-3.5 0-2 1.6-3.5 3.6-3.5h124c2 0 3.8 1.6 3.8 3.5 0 2-1.4 3.5-3.5 3.5h-.5z" fill="#878f94"/></svg>